# xmcd CD database file
#
# Track frame offsets:
#	150
#	22370
#	41865
#	61895
#	80892
#	96260
#	116152
#	133618
#	149022
#	170768
#	188597
#	199597
#
# Disc length: 2891 seconds
#
# Revision: 0
# Processed by: cddbd v1.5.2PL0 Copyright (c) Steve Scherf et al.
# Submitted via: CDex 1.51
#
DISCID=bb0b490c
DTITLE=Dave Anderson Trio - Out of Nowhere
DYEAR=2000
DGENRE=Jazz
TTITLE0=All the Things You Are
TTITLE1=Ceora
TTITLE2=Night and Day
TTITLE3=Crystal Silence
TTITLE4=Out of Nowhere
TTITLE5=Saga of Harrison Crabfeathers
TTITLE6=Memories of Tomorrow
TTITLE7=How My Heart Sings
TTITLE8=Fragile
TTITLE9=April in Paris
TTITLE10=Dearly Beloved
TTITLE11=Nostalgia in Times Square
EXTD=YEAR: 2000
EXTT0=
EXTT1=
EXTT2=
EXTT3=
EXTT4=
EXTT5=
EXTT6=
EXTT7=
EXTT8=
EXTT9=
EXTT10=
EXTT11=
PLAYORDER=
